<mxfile host="app.diagrams.net" modified="2024-05-10T01:32:46.106Z" agent="Mozilla/5.0 (Windows NT 10.0; Win64; x64) AppleWebKit/537.36 (KHTML, like Gecko) Chrome/124.0.0.0 Safari/537.36" etag="7-YHdmLyijBtr7jZ-SS3" version="24.3.1" type="github">
  <diagram name="第 1 页" id="iA5qATUPCENagUnjX_-0">
    <mxGraphModel dx="2607" dy="1375" grid="1" gridSize="10" guides="1" tooltips="1" connect="1" arrows="1" fold="1" page="1" pageScale="1" pageWidth="1654" pageHeight="1169" math="0" shadow="0">
      <root>
        <mxCell id="0" />
        <mxCell id="1" parent="0" />
        <mxCell id="2T69lTBmzo6Eun2dO9DT-111" value="" style="rounded=1;whiteSpace=wrap;html=1;fontFamily=Helvetica;fontSize=11;fontColor=default;labelBackgroundColor=default;" vertex="1" parent="1">
          <mxGeometry x="90" y="95" width="1140" height="540" as="geometry" />
        </mxCell>
        <mxCell id="2T69lTBmzo6Eun2dO9DT-105" style="edgeStyle=orthogonalEdgeStyle;rounded=0;orthogonalLoop=1;jettySize=auto;html=1;entryX=0;entryY=0.5;entryDx=0;entryDy=0;strokeColor=default;align=center;verticalAlign=middle;fontFamily=Helvetica;fontSize=11;fontColor=default;labelBackgroundColor=default;endArrow=block;endFill=1;" edge="1" parent="1" source="2T69lTBmzo6Eun2dO9DT-94" target="2T69lTBmzo6Eun2dO9DT-103">
          <mxGeometry relative="1" as="geometry" />
        </mxCell>
        <mxCell id="2T69lTBmzo6Eun2dO9DT-108" style="edgeStyle=orthogonalEdgeStyle;rounded=0;orthogonalLoop=1;jettySize=auto;html=1;strokeColor=default;align=center;verticalAlign=middle;fontFamily=Helvetica;fontSize=11;fontColor=default;labelBackgroundColor=default;endArrow=block;endFill=1;startArrow=block;startFill=1;" edge="1" parent="1" source="2T69lTBmzo6Eun2dO9DT-94" target="2T69lTBmzo6Eun2dO9DT-102">
          <mxGeometry relative="1" as="geometry" />
        </mxCell>
        <mxCell id="2T69lTBmzo6Eun2dO9DT-109" style="edgeStyle=orthogonalEdgeStyle;rounded=0;orthogonalLoop=1;jettySize=auto;html=1;entryX=0;entryY=0.5;entryDx=0;entryDy=0;strokeColor=default;align=center;verticalAlign=middle;fontFamily=Helvetica;fontSize=11;fontColor=default;labelBackgroundColor=default;endArrow=block;endFill=1;" edge="1" parent="1" source="2T69lTBmzo6Eun2dO9DT-94" target="2T69lTBmzo6Eun2dO9DT-104">
          <mxGeometry relative="1" as="geometry" />
        </mxCell>
        <mxCell id="2T69lTBmzo6Eun2dO9DT-94" value="" style="rounded=1;whiteSpace=wrap;html=1;fontFamily=Helvetica;fontSize=11;fontColor=default;labelBackgroundColor=default;" vertex="1" parent="1">
          <mxGeometry x="110" y="130" width="780" height="470" as="geometry" />
        </mxCell>
        <mxCell id="2T69lTBmzo6Eun2dO9DT-68" style="edgeStyle=orthogonalEdgeStyle;rounded=0;orthogonalLoop=1;jettySize=auto;html=1;entryX=0;entryY=0.5;entryDx=0;entryDy=0;strokeColor=default;align=center;verticalAlign=middle;fontFamily=Helvetica;fontSize=11;fontColor=default;labelBackgroundColor=default;endArrow=block;endFill=1;" edge="1" parent="1" source="2T69lTBmzo6Eun2dO9DT-1" target="2T69lTBmzo6Eun2dO9DT-50">
          <mxGeometry relative="1" as="geometry" />
        </mxCell>
        <mxCell id="2T69lTBmzo6Eun2dO9DT-1" value="&lt;font style=&quot;font-size: 15px;&quot;&gt;车载控制终端&lt;/font&gt;" style="rounded=0;whiteSpace=wrap;html=1;" vertex="1" parent="1">
          <mxGeometry x="140" y="330" width="40" height="170" as="geometry" />
        </mxCell>
        <mxCell id="2T69lTBmzo6Eun2dO9DT-53" value="" style="edgeStyle=orthogonalEdgeStyle;rounded=0;orthogonalLoop=1;jettySize=auto;html=1;strokeColor=default;align=center;verticalAlign=middle;fontFamily=Helvetica;fontSize=11;fontColor=default;labelBackgroundColor=default;endArrow=block;endFill=1;" edge="1" parent="1" source="2T69lTBmzo6Eun2dO9DT-50" target="2T69lTBmzo6Eun2dO9DT-52">
          <mxGeometry relative="1" as="geometry" />
        </mxCell>
        <mxCell id="2T69lTBmzo6Eun2dO9DT-55" style="edgeStyle=orthogonalEdgeStyle;rounded=0;orthogonalLoop=1;jettySize=auto;html=1;entryX=0;entryY=0.5;entryDx=0;entryDy=0;strokeColor=default;align=center;verticalAlign=middle;fontFamily=Helvetica;fontSize=11;fontColor=default;labelBackgroundColor=default;endArrow=block;endFill=1;" edge="1" parent="1" source="2T69lTBmzo6Eun2dO9DT-50" target="2T69lTBmzo6Eun2dO9DT-54">
          <mxGeometry relative="1" as="geometry" />
        </mxCell>
        <mxCell id="2T69lTBmzo6Eun2dO9DT-50" value="通信系统" style="rounded=0;whiteSpace=wrap;html=1;" vertex="1" parent="1">
          <mxGeometry x="220" y="330" width="120" height="40" as="geometry" />
        </mxCell>
        <mxCell id="2T69lTBmzo6Eun2dO9DT-59" style="edgeStyle=orthogonalEdgeStyle;rounded=0;orthogonalLoop=1;jettySize=auto;html=1;entryX=0;entryY=0.5;entryDx=0;entryDy=0;strokeColor=default;align=center;verticalAlign=middle;fontFamily=Helvetica;fontSize=11;fontColor=default;labelBackgroundColor=default;endArrow=block;endFill=1;" edge="1" parent="1" source="2T69lTBmzo6Eun2dO9DT-51" target="2T69lTBmzo6Eun2dO9DT-56">
          <mxGeometry relative="1" as="geometry" />
        </mxCell>
        <mxCell id="2T69lTBmzo6Eun2dO9DT-60" style="edgeStyle=orthogonalEdgeStyle;rounded=0;orthogonalLoop=1;jettySize=auto;html=1;entryX=0;entryY=0.5;entryDx=0;entryDy=0;strokeColor=default;align=center;verticalAlign=middle;fontFamily=Helvetica;fontSize=11;fontColor=default;labelBackgroundColor=default;endArrow=block;endFill=1;" edge="1" parent="1" source="2T69lTBmzo6Eun2dO9DT-51" target="2T69lTBmzo6Eun2dO9DT-57">
          <mxGeometry relative="1" as="geometry" />
        </mxCell>
        <mxCell id="2T69lTBmzo6Eun2dO9DT-61" style="edgeStyle=orthogonalEdgeStyle;rounded=0;orthogonalLoop=1;jettySize=auto;html=1;entryX=0;entryY=0.75;entryDx=0;entryDy=0;strokeColor=default;align=center;verticalAlign=middle;fontFamily=Helvetica;fontSize=11;fontColor=default;labelBackgroundColor=default;endArrow=block;endFill=1;" edge="1" parent="1" source="2T69lTBmzo6Eun2dO9DT-51" target="2T69lTBmzo6Eun2dO9DT-58">
          <mxGeometry relative="1" as="geometry" />
        </mxCell>
        <mxCell id="2T69lTBmzo6Eun2dO9DT-51" value="传感器信息采集系统" style="rounded=0;whiteSpace=wrap;html=1;" vertex="1" parent="1">
          <mxGeometry x="220" y="450" width="120" height="40" as="geometry" />
        </mxCell>
        <mxCell id="2T69lTBmzo6Eun2dO9DT-74" style="edgeStyle=orthogonalEdgeStyle;rounded=0;orthogonalLoop=1;jettySize=auto;html=1;entryX=0;entryY=0.5;entryDx=0;entryDy=0;strokeColor=default;align=center;verticalAlign=middle;fontFamily=Helvetica;fontSize=11;fontColor=default;labelBackgroundColor=default;endArrow=block;endFill=1;" edge="1" parent="1" source="2T69lTBmzo6Eun2dO9DT-52" target="2T69lTBmzo6Eun2dO9DT-71">
          <mxGeometry relative="1" as="geometry" />
        </mxCell>
        <mxCell id="2T69lTBmzo6Eun2dO9DT-52" value="4G CAT1" style="whiteSpace=wrap;html=1;rounded=0;" vertex="1" parent="1">
          <mxGeometry x="380" y="370" width="120" height="40" as="geometry" />
        </mxCell>
        <mxCell id="2T69lTBmzo6Eun2dO9DT-76" style="edgeStyle=orthogonalEdgeStyle;rounded=0;orthogonalLoop=1;jettySize=auto;html=1;entryX=0;entryY=0.5;entryDx=0;entryDy=0;strokeColor=default;align=center;verticalAlign=middle;fontFamily=Helvetica;fontSize=11;fontColor=default;labelBackgroundColor=default;endArrow=block;endFill=1;" edge="1" parent="1" source="2T69lTBmzo6Eun2dO9DT-54" target="2T69lTBmzo6Eun2dO9DT-71">
          <mxGeometry relative="1" as="geometry" />
        </mxCell>
        <mxCell id="2T69lTBmzo6Eun2dO9DT-78" style="edgeStyle=orthogonalEdgeStyle;rounded=0;orthogonalLoop=1;jettySize=auto;html=1;entryX=0;entryY=0.5;entryDx=0;entryDy=0;strokeColor=default;align=center;verticalAlign=middle;fontFamily=Helvetica;fontSize=11;fontColor=default;labelBackgroundColor=default;endArrow=block;endFill=1;" edge="1" parent="1" source="2T69lTBmzo6Eun2dO9DT-54" target="2T69lTBmzo6Eun2dO9DT-77">
          <mxGeometry relative="1" as="geometry" />
        </mxCell>
        <mxCell id="2T69lTBmzo6Eun2dO9DT-83" style="edgeStyle=orthogonalEdgeStyle;rounded=0;orthogonalLoop=1;jettySize=auto;html=1;entryX=0;entryY=0.5;entryDx=0;entryDy=0;strokeColor=default;align=center;verticalAlign=middle;fontFamily=Helvetica;fontSize=11;fontColor=default;labelBackgroundColor=default;endArrow=block;endFill=1;" edge="1" parent="1" source="2T69lTBmzo6Eun2dO9DT-54" target="2T69lTBmzo6Eun2dO9DT-80">
          <mxGeometry relative="1" as="geometry" />
        </mxCell>
        <mxCell id="2T69lTBmzo6Eun2dO9DT-84" style="edgeStyle=orthogonalEdgeStyle;rounded=0;orthogonalLoop=1;jettySize=auto;html=1;entryX=0;entryY=0.5;entryDx=0;entryDy=0;strokeColor=default;align=center;verticalAlign=middle;fontFamily=Helvetica;fontSize=11;fontColor=default;labelBackgroundColor=default;endArrow=block;endFill=1;" edge="1" parent="1" source="2T69lTBmzo6Eun2dO9DT-54" target="2T69lTBmzo6Eun2dO9DT-81">
          <mxGeometry relative="1" as="geometry" />
        </mxCell>
        <mxCell id="2T69lTBmzo6Eun2dO9DT-85" style="edgeStyle=orthogonalEdgeStyle;rounded=0;orthogonalLoop=1;jettySize=auto;html=1;entryX=0;entryY=0.5;entryDx=0;entryDy=0;strokeColor=default;align=center;verticalAlign=middle;fontFamily=Helvetica;fontSize=11;fontColor=default;labelBackgroundColor=default;endArrow=block;endFill=1;" edge="1" parent="1" source="2T69lTBmzo6Eun2dO9DT-54" target="2T69lTBmzo6Eun2dO9DT-82">
          <mxGeometry relative="1" as="geometry" />
        </mxCell>
        <mxCell id="2T69lTBmzo6Eun2dO9DT-54" value="ZigBee" style="whiteSpace=wrap;html=1;rounded=0;" vertex="1" parent="1">
          <mxGeometry x="380" y="290" width="120" height="40" as="geometry" />
        </mxCell>
        <mxCell id="2T69lTBmzo6Eun2dO9DT-65" style="edgeStyle=orthogonalEdgeStyle;rounded=0;orthogonalLoop=1;jettySize=auto;html=1;entryX=0;entryY=0.5;entryDx=0;entryDy=0;endArrow=block;endFill=1;" edge="1" parent="1" source="2T69lTBmzo6Eun2dO9DT-56" target="2T69lTBmzo6Eun2dO9DT-62">
          <mxGeometry relative="1" as="geometry" />
        </mxCell>
        <mxCell id="2T69lTBmzo6Eun2dO9DT-56" value="GNSS接收机" style="whiteSpace=wrap;html=1;rounded=0;" vertex="1" parent="1">
          <mxGeometry x="380" y="450" width="120" height="40" as="geometry" />
        </mxCell>
        <mxCell id="2T69lTBmzo6Eun2dO9DT-66" style="edgeStyle=orthogonalEdgeStyle;rounded=0;orthogonalLoop=1;jettySize=auto;html=1;entryX=0;entryY=0.5;entryDx=0;entryDy=0;strokeColor=default;align=center;verticalAlign=middle;fontFamily=Helvetica;fontSize=11;fontColor=default;labelBackgroundColor=default;endArrow=block;endFill=1;" edge="1" parent="1" source="2T69lTBmzo6Eun2dO9DT-57" target="2T69lTBmzo6Eun2dO9DT-63">
          <mxGeometry relative="1" as="geometry" />
        </mxCell>
        <mxCell id="2T69lTBmzo6Eun2dO9DT-57" value="角度传感器" style="whiteSpace=wrap;html=1;rounded=0;" vertex="1" parent="1">
          <mxGeometry x="380" y="500" width="120" height="40" as="geometry" />
        </mxCell>
        <mxCell id="2T69lTBmzo6Eun2dO9DT-67" style="edgeStyle=orthogonalEdgeStyle;rounded=0;orthogonalLoop=1;jettySize=auto;html=1;entryX=0;entryY=0.5;entryDx=0;entryDy=0;strokeColor=default;align=center;verticalAlign=middle;fontFamily=Helvetica;fontSize=11;fontColor=default;labelBackgroundColor=default;endArrow=block;endFill=1;" edge="1" parent="1" source="2T69lTBmzo6Eun2dO9DT-58" target="2T69lTBmzo6Eun2dO9DT-64">
          <mxGeometry relative="1" as="geometry" />
        </mxCell>
        <mxCell id="2T69lTBmzo6Eun2dO9DT-58" value="姿态传感器" style="whiteSpace=wrap;html=1;rounded=0;" vertex="1" parent="1">
          <mxGeometry x="380" y="550" width="120" height="40" as="geometry" />
        </mxCell>
        <mxCell id="2T69lTBmzo6Eun2dO9DT-62" value="经度、纬度、高程" style="whiteSpace=wrap;html=1;rounded=0;" vertex="1" parent="1">
          <mxGeometry x="540" y="450" width="120" height="40" as="geometry" />
        </mxCell>
        <mxCell id="2T69lTBmzo6Eun2dO9DT-63" value="前轮转角" style="whiteSpace=wrap;html=1;rounded=0;" vertex="1" parent="1">
          <mxGeometry x="540" y="500" width="120" height="40" as="geometry" />
        </mxCell>
        <mxCell id="2T69lTBmzo6Eun2dO9DT-64" value="俯仰角、横滚角、&lt;div&gt;航向角&lt;/div&gt;" style="whiteSpace=wrap;html=1;rounded=0;" vertex="1" parent="1">
          <mxGeometry x="540" y="550" width="120" height="40" as="geometry" />
        </mxCell>
        <mxCell id="2T69lTBmzo6Eun2dO9DT-70" style="edgeStyle=orthogonalEdgeStyle;rounded=0;orthogonalLoop=1;jettySize=auto;html=1;strokeColor=default;align=center;verticalAlign=middle;fontFamily=Helvetica;fontSize=11;fontColor=default;labelBackgroundColor=default;endArrow=block;endFill=1;" edge="1" parent="1" source="2T69lTBmzo6Eun2dO9DT-1">
          <mxGeometry relative="1" as="geometry">
            <mxPoint x="220" y="470" as="targetPoint" />
          </mxGeometry>
        </mxCell>
        <mxCell id="2T69lTBmzo6Eun2dO9DT-71" value="状态信息上传&lt;div&gt;控制指令接收&lt;/div&gt;" style="whiteSpace=wrap;html=1;rounded=0;" vertex="1" parent="1">
          <mxGeometry x="540" y="370" width="120" height="40" as="geometry" />
        </mxCell>
        <mxCell id="2T69lTBmzo6Eun2dO9DT-90" style="edgeStyle=orthogonalEdgeStyle;rounded=0;orthogonalLoop=1;jettySize=auto;html=1;entryX=0;entryY=0.5;entryDx=0;entryDy=0;strokeColor=default;align=center;verticalAlign=middle;fontFamily=Helvetica;fontSize=11;fontColor=default;labelBackgroundColor=default;endArrow=block;endFill=1;" edge="1" parent="1" source="2T69lTBmzo6Eun2dO9DT-77" target="2T69lTBmzo6Eun2dO9DT-89">
          <mxGeometry relative="1" as="geometry" />
        </mxCell>
        <mxCell id="2T69lTBmzo6Eun2dO9DT-77" value="谷物流量传感器" style="whiteSpace=wrap;html=1;rounded=0;" vertex="1" parent="1">
          <mxGeometry x="540" y="290" width="120" height="40" as="geometry" />
        </mxCell>
        <mxCell id="2T69lTBmzo6Eun2dO9DT-91" style="edgeStyle=orthogonalEdgeStyle;rounded=0;orthogonalLoop=1;jettySize=auto;html=1;entryX=0;entryY=0.5;entryDx=0;entryDy=0;strokeColor=default;align=center;verticalAlign=middle;fontFamily=Helvetica;fontSize=11;fontColor=default;labelBackgroundColor=default;endArrow=block;endFill=1;" edge="1" parent="1" source="2T69lTBmzo6Eun2dO9DT-80" target="2T69lTBmzo6Eun2dO9DT-88">
          <mxGeometry relative="1" as="geometry" />
        </mxCell>
        <mxCell id="2T69lTBmzo6Eun2dO9DT-80" value="割台高度传感器" style="whiteSpace=wrap;html=1;rounded=0;" vertex="1" parent="1">
          <mxGeometry x="540" y="240" width="120" height="40" as="geometry" />
        </mxCell>
        <mxCell id="2T69lTBmzo6Eun2dO9DT-92" style="edgeStyle=orthogonalEdgeStyle;rounded=0;orthogonalLoop=1;jettySize=auto;html=1;entryX=0;entryY=0.5;entryDx=0;entryDy=0;strokeColor=default;align=center;verticalAlign=middle;fontFamily=Helvetica;fontSize=11;fontColor=default;labelBackgroundColor=default;endArrow=block;endFill=1;" edge="1" parent="1" source="2T69lTBmzo6Eun2dO9DT-81" target="2T69lTBmzo6Eun2dO9DT-87">
          <mxGeometry relative="1" as="geometry" />
        </mxCell>
        <mxCell id="2T69lTBmzo6Eun2dO9DT-81" value="转速传感器" style="whiteSpace=wrap;html=1;rounded=0;" vertex="1" parent="1">
          <mxGeometry x="540" y="190" width="120" height="40" as="geometry" />
        </mxCell>
        <mxCell id="2T69lTBmzo6Eun2dO9DT-93" style="edgeStyle=orthogonalEdgeStyle;rounded=0;orthogonalLoop=1;jettySize=auto;html=1;entryX=0;entryY=0.5;entryDx=0;entryDy=0;strokeColor=default;align=center;verticalAlign=middle;fontFamily=Helvetica;fontSize=11;fontColor=default;labelBackgroundColor=default;endArrow=block;endFill=1;" edge="1" parent="1" source="2T69lTBmzo6Eun2dO9DT-82" target="2T69lTBmzo6Eun2dO9DT-86">
          <mxGeometry relative="1" as="geometry" />
        </mxCell>
        <mxCell id="2T69lTBmzo6Eun2dO9DT-82" value="含水率传感器" style="whiteSpace=wrap;html=1;rounded=0;" vertex="1" parent="1">
          <mxGeometry x="540" y="140" width="120" height="40" as="geometry" />
        </mxCell>
        <mxCell id="2T69lTBmzo6Eun2dO9DT-86" value="谷物含水率" style="whiteSpace=wrap;html=1;rounded=0;" vertex="1" parent="1">
          <mxGeometry x="700" y="140" width="120" height="40" as="geometry" />
        </mxCell>
        <mxCell id="2T69lTBmzo6Eun2dO9DT-87" value="转速" style="whiteSpace=wrap;html=1;rounded=0;" vertex="1" parent="1">
          <mxGeometry x="700" y="190" width="120" height="40" as="geometry" />
        </mxCell>
        <mxCell id="2T69lTBmzo6Eun2dO9DT-88" value="割台高度" style="whiteSpace=wrap;html=1;rounded=0;" vertex="1" parent="1">
          <mxGeometry x="700" y="240" width="120" height="40" as="geometry" />
        </mxCell>
        <mxCell id="2T69lTBmzo6Eun2dO9DT-89" value="谷物流量" style="whiteSpace=wrap;html=1;rounded=0;" vertex="1" parent="1">
          <mxGeometry x="700" y="290" width="120" height="40" as="geometry" />
        </mxCell>
        <mxCell id="2T69lTBmzo6Eun2dO9DT-95" value="&lt;font style=&quot;font-size: 20px;&quot;&gt;农机1&lt;/font&gt;" style="rounded=0;whiteSpace=wrap;html=1;fontFamily=Helvetica;fontSize=11;fontColor=default;labelBackgroundColor=default;" vertex="1" parent="1">
          <mxGeometry x="140" y="170" width="90" height="50" as="geometry" />
        </mxCell>
        <mxCell id="2T69lTBmzo6Eun2dO9DT-102" value="&lt;font style=&quot;font-size: 20px;&quot;&gt;农机2&lt;/font&gt;" style="rounded=1;whiteSpace=wrap;html=1;fontFamily=Helvetica;fontSize=11;fontColor=default;labelBackgroundColor=default;" vertex="1" parent="1">
          <mxGeometry x="1000" y="130" width="170" height="100" as="geometry" />
        </mxCell>
        <mxCell id="2T69lTBmzo6Eun2dO9DT-106" style="edgeStyle=orthogonalEdgeStyle;rounded=0;orthogonalLoop=1;jettySize=auto;html=1;entryX=0.5;entryY=1;entryDx=0;entryDy=0;strokeColor=default;align=center;verticalAlign=middle;fontFamily=Helvetica;fontSize=11;fontColor=default;labelBackgroundColor=default;endArrow=block;endFill=1;startArrow=block;startFill=1;" edge="1" parent="1" source="2T69lTBmzo6Eun2dO9DT-103" target="2T69lTBmzo6Eun2dO9DT-102">
          <mxGeometry relative="1" as="geometry" />
        </mxCell>
        <mxCell id="2T69lTBmzo6Eun2dO9DT-103" value="&lt;font style=&quot;font-size: 20px;&quot;&gt;农机2&lt;/font&gt;" style="rounded=1;whiteSpace=wrap;html=1;fontFamily=Helvetica;fontSize=11;fontColor=default;labelBackgroundColor=default;" vertex="1" parent="1">
          <mxGeometry x="1000" y="315" width="170" height="100" as="geometry" />
        </mxCell>
        <mxCell id="2T69lTBmzo6Eun2dO9DT-107" style="edgeStyle=orthogonalEdgeStyle;rounded=0;orthogonalLoop=1;jettySize=auto;html=1;entryX=0.5;entryY=1;entryDx=0;entryDy=0;strokeColor=default;align=center;verticalAlign=middle;fontFamily=Helvetica;fontSize=11;fontColor=default;labelBackgroundColor=default;endArrow=block;endFill=1;startArrow=block;startFill=1;" edge="1" parent="1" source="2T69lTBmzo6Eun2dO9DT-104" target="2T69lTBmzo6Eun2dO9DT-103">
          <mxGeometry relative="1" as="geometry" />
        </mxCell>
        <mxCell id="2T69lTBmzo6Eun2dO9DT-104" value="&lt;font style=&quot;font-size: 20px;&quot;&gt;农机2&lt;/font&gt;" style="rounded=1;whiteSpace=wrap;html=1;fontFamily=Helvetica;fontSize=11;fontColor=default;labelBackgroundColor=default;" vertex="1" parent="1">
          <mxGeometry x="1000" y="500" width="170" height="100" as="geometry" />
        </mxCell>
        <mxCell id="2T69lTBmzo6Eun2dO9DT-110" value="&lt;font style=&quot;font-size: 12px;&quot;&gt;车间通信&lt;/font&gt;" style="text;strokeColor=none;fillColor=none;html=1;fontSize=11;fontStyle=1;verticalAlign=middle;align=center;fontFamily=Helvetica;fontColor=default;labelBackgroundColor=default;" vertex="1" parent="1">
          <mxGeometry x="900" y="330" width="100" height="40" as="geometry" />
        </mxCell>
        <mxCell id="2T69lTBmzo6Eun2dO9DT-112" value="&lt;font style=&quot;font-size: 20px;&quot;&gt;远程服务平台&lt;/font&gt;" style="rounded=1;whiteSpace=wrap;html=1;fontFamily=Helvetica;fontSize=11;fontColor=default;labelBackgroundColor=default;" vertex="1" parent="1">
          <mxGeometry x="110" y="820" width="1140" height="60" as="geometry" />
        </mxCell>
      </root>
    </mxGraphModel>
  </diagram>
</mxfile>
